<?xml version="1.0" encoding="iso-8859-1"?>
<!-- Uploaded to: SVG Repo, www.svgrepo.com, Generator: SVG Repo Mixer Tools -->
<svg version="1.1" id="Layer_1" xmlns="http://www.w3.org/2000/svg" xmlns:xlink="http://www.w3.org/1999/xlink" 
	 viewBox="0 0 512 512" xml:space="preserve">
<path style="fill:#F7F7F8;" d="M342.727,405.394H169.273v-65.053c-26.496-14.456-48.997-35.308-65.498-60.799
	c-18.961-29.293-28.984-63.295-28.984-98.333C74.791,81.29,156.081,0,256,0s181.209,81.29,181.209,181.209
	c0,35.037-10.023,69.04-28.984,98.333c-16.501,25.491-39.002,46.343-65.498,60.799L342.727,405.394L342.727,405.394z"/>
<path style="fill:#D7D7D7;" d="M256,0v405.394h86.727v-65.053c26.496-14.456,48.997-35.308,65.498-60.799
	c18.961-29.293,28.984-63.295,28.984-98.333C437.209,81.29,355.919,0,256,0z"/>
<rect x="185.967" y="425.305" style="fill:#B0B0B0;" width="140.065" height="33.391"/>
<rect x="256" y="425.305" style="fill:#8B8B8B;" width="70.032" height="33.391"/>
<rect x="215.285" y="478.609" style="fill:#B0B0B0;" width="81.441" height="33.391"/>
<rect x="256" y="478.609" style="fill:#8B8B8B;" width="40.718" height="33.391"/>
<path style="fill:#F0C838;" d="M294.918,405.394h-33.391V233.823h-11.053v171.571h-33.391V233.823h-20.558
	c-29.748,0-53.949-24.202-53.949-53.949s24.201-53.949,53.949-53.949s53.949,24.202,53.949,53.949v20.558h11.053v-20.558
	c0-29.747,24.201-53.949,53.949-53.949c29.748,0,53.949,24.202,53.949,53.949s-24.201,53.949-53.949,53.949h-20.558V405.394z
	 M294.918,200.431h20.558c11.336,0,20.558-9.223,20.558-20.558c0-11.335-9.222-20.558-20.558-20.558
	c-11.336,0-20.558,9.223-20.558,20.558V200.431z M196.525,159.317c-11.336,0-20.558,9.223-20.558,20.558
	c0,11.335,9.222,20.558,20.558,20.558h20.558v-20.558C217.082,168.538,207.861,159.317,196.525,159.317z"/>
<path style="fill:#E79C25;" d="M315.475,125.925c-29.748,0-53.949,24.202-53.949,53.949v20.558H256v33.391h5.526v171.571h33.391
	V233.823h20.558c29.748,0,53.949-24.202,53.949-53.949S345.223,125.925,315.475,125.925z M315.475,200.431h-20.558v-20.558
	c0-11.335,9.222-20.558,20.558-20.558c11.336,0,20.558,9.223,20.558,20.558C336.033,191.209,326.811,200.431,315.475,200.431z"/>
</svg>